<svg width="217" height="217" viewBox="0 0 217 217" fill="none" xmlns="http://www.w3.org/2000/svg">
<g opacity="0.4" clip-path="url(#clip0_2393_15280)">
<path d="M70.2071 74.088H14.0414V16.8421L43.2044 6.04102L70.2071 16.8421V74.088Z" fill="black"/>
<path d="M175.514 0.640625H44.0711H36.9427H33.7565L34.3235 0.91064C18.8922 2.26071 6.755 15.0594 6.755 30.8283V81.6451H60.758V209.902C60.758 212.143 61.8786 214.236 63.7282 215.492C65.5778 216.747 67.9404 216.99 70.0195 216.167L101.26 203.665L132.501 216.167C134.108 216.828 135.903 216.828 137.51 216.167L168.764 203.665L200.005 216.167C200.815 216.491 201.679 216.653 202.516 216.653C203.852 216.653 205.162 216.261 206.296 215.492C208.159 214.236 209.266 212.143 209.266 209.902V34.3925C209.266 15.7885 194.132 0.640625 175.514 0.640625ZM60.758 41.1429V68.1444H20.2558V30.8283C20.2558 21.6343 27.7487 14.1414 36.9427 14.1414H44.0711C53.2651 14.1414 60.758 21.6343 60.758 30.8283V41.1429ZM175.514 162.65H121.511C117.785 162.65 114.761 159.625 114.761 155.899C114.761 152.173 117.785 149.149 121.511 149.149H175.514C179.241 149.149 182.265 152.173 182.265 155.899C182.265 159.625 179.241 162.65 175.514 162.65ZM175.514 135.648H121.511C117.785 135.648 114.761 132.624 114.761 128.898C114.761 125.172 117.785 122.147 121.511 122.147H175.514C179.241 122.147 182.265 125.172 182.265 128.898C182.265 132.624 179.241 135.648 175.514 135.648ZM175.514 108.647H94.5099C90.7837 108.647 87.7595 105.622 87.7595 101.896C87.7595 98.17 90.7837 95.1459 94.5099 95.1459H175.514C179.241 95.1459 182.265 98.17 182.265 101.896C182.265 105.622 179.241 108.647 175.514 108.647ZM175.514 54.6436H94.5099C90.7837 54.6436 87.7595 51.6194 87.7595 47.8932C87.7595 44.167 90.7837 41.1429 94.5099 41.1429H175.514C179.241 41.1429 182.265 44.167 182.265 47.8932C182.265 51.6194 179.241 54.6436 175.514 54.6436Z" fill="#40444D"/>
</g>
<defs>
<clipPath id="clip0_2393_15280">
<rect width="216.022" height="216.022" fill="white" transform="translate(0 0.640625)"/>
</clipPath>
</defs>
</svg>
