<svg width="33" height="33" viewBox="0 0 33 33" fill="none" xmlns="http://www.w3.org/2000/svg">
<path d="M5.27076 5.5H11.4444L13.4343 10.4748L10.2376 12.6059C9.85511 12.8609 9.62535 13.2903 9.62535 13.75C9.62884 13.8787 9.62535 13.7514 9.62535 13.7514L9.62535 13.7528L9.62536 13.7559L9.6254 13.7628L9.62561 13.7798C9.62581 13.7925 9.62615 13.8079 9.62673 13.8259C9.6279 13.8619 9.63 13.9085 9.63376 13.965C9.64129 14.0779 9.65547 14.2305 9.68214 14.4171C9.73543 14.7901 9.83886 15.3012 10.0397 15.9036C10.4429 17.1132 11.2351 18.6793 12.7781 20.2223C14.321 21.7652 15.8872 22.5575 17.0968 22.9607C17.6992 23.1615 18.2102 23.2649 18.5832 23.3182C18.7699 23.3449 18.9225 23.3591 19.0353 23.3666C19.0918 23.3703 19.1384 23.3725 19.1745 23.3736C19.1925 23.3742 19.2079 23.3745 19.2205 23.3747L19.2375 23.3749L19.2444 23.375L19.2475 23.375H19.249C19.249 23.375 19.4025 23.3666 19.2503 23.375C19.7712 23.375 20.2473 23.0807 20.4802 22.6149L21.401 20.7732L27.5003 21.7898V27.7296C24.5976 28.1494 16.758 28.5631 10.5976 22.4027C4.43721 16.2423 4.85096 8.40276 5.27076 5.5ZM12.4766 14.4184L14.9598 12.7629C16.0418 12.0416 16.4706 10.6609 15.9877 9.45347L13.9977 4.47868C13.5801 3.43462 12.5689 2.75 11.4444 2.75H5.19892C3.94971 2.75 2.77384 3.61785 2.56877 4.97324C2.10222 8.05681 1.46718 17.1614 8.65308 24.3473C15.839 31.5332 24.9435 30.8981 28.0271 30.4316C29.3825 30.2265 30.2503 29.0506 30.2503 27.8014V21.7898C30.2503 20.4455 29.2785 19.2982 27.9524 19.0772L21.8531 18.0607C20.6623 17.8622 19.4812 18.4636 18.9413 19.5434L18.4649 20.4963C18.3152 20.4595 18.148 20.4123 17.9664 20.3518C17.1135 20.0675 15.9296 19.4848 14.7226 18.2777C13.5156 17.0707 12.9328 15.8868 12.6485 15.0339C12.5717 14.8035 12.5164 14.5962 12.4766 14.4184Z" fill="#0F264C"/>
</svg>
