<svg width="29" height="29" viewBox="0 0 29 29" fill="none" xmlns="http://www.w3.org/2000/svg">
<path fill-rule="evenodd" clip-rule="evenodd" d="M3.5 0.75H25.5C27.0188 0.75 28.25 1.98122 28.25 3.5V25.5C28.25 27.0188 27.0188 28.25 25.5 28.25H3.5C1.98122 28.25 0.75 27.0188 0.75 25.5V3.5C0.75 1.98122 1.98122 0.75 3.5 0.75ZM3.5 3.5V25.5H25.5V3.5H3.5ZM13.308 14.506H15.875V22.75H18.625V14.506H21.3508V11.756H18.625V10.375C18.625 9.61561 19.2406 9 20 9H21.375V6.25H20C17.7218 6.25 15.875 8.09683 15.875 10.375V11.756H13.308V14.506Z" fill="#0F264C"/>
</svg>
