<svg width="33" height="33" viewBox="0 0 33 33" fill="none" xmlns="http://www.w3.org/2000/svg">
<path fill-rule="evenodd" clip-rule="evenodd" d="M16.5 32.0754L17.4044 31.2857C25.0095 24.6451 28.875 18.8468 28.875 13.75C28.875 6.53216 23.2416 1.375 16.5 1.375C9.75845 1.375 4.125 6.53216 4.125 13.75C4.125 18.8468 7.99055 24.6451 15.5956 31.2857L16.5 32.0754ZM16.5 28.4122C10.0466 22.5961 6.875 17.6677 6.875 13.75C6.875 8.10783 11.2257 4.125 16.5 4.125C21.7743 4.125 26.125 8.10783 26.125 13.75C26.125 17.6677 22.9534 22.5961 16.5 28.4122ZM16.5 6.875C20.297 6.875 23.375 9.95304 23.375 13.75C23.375 17.547 20.297 20.625 16.5 20.625C12.703 20.625 9.625 17.547 9.625 13.75C9.625 9.95304 12.703 6.875 16.5 6.875ZM12.375 13.75C12.375 11.4718 14.2218 9.625 16.5 9.625C18.7782 9.625 20.625 11.4718 20.625 13.75C20.625 16.0282 18.7782 17.875 16.5 17.875C14.2218 17.875 12.375 16.0282 12.375 13.75Z" fill="#0F264C"/>
</svg>
