<svg width="12" height="12" viewBox="0 0 12 12" fill="none" xmlns="http://www.w3.org/2000/svg">
<mask id="path-1-inside-1_3006_27756" fill="white">
<path fill-rule="evenodd" clip-rule="evenodd" d="M6 0L7.854 3.94953L12 4.58675L9 7.65931L9.708 12L6 9.94953L2.292 12L3 7.65931L0 4.58675L4.146 3.94953L6 0Z"/>
</mask>
<path d="M6 0L13.2418 -3.39947C11.9238 -6.20716 9.10166 -8 6 -8C2.89834 -8 0.0762014 -6.20716 -1.2418 -3.39947L6 0ZM7.854 3.94953L0.612204 7.349C1.74475 9.76162 4.00441 11.4518 6.6387 11.8567L7.854 3.94953ZM12 4.58675L17.724 10.1756C19.8183 8.03075 20.5376 4.89507 19.5878 2.05184C18.6379 -0.791399 16.1782 -2.86501 13.2153 -3.3204L12 4.58675ZM9 7.65931L3.27597 2.07044C1.5014 3.88792 0.695427 6.44014 1.10434 8.94715L9 7.65931ZM9.708 12L5.83661 19.0009C8.51777 20.4835 11.8102 20.3047 14.315 18.5403C16.8198 16.7759 18.0969 13.736 17.6037 10.7122L9.708 12ZM6 9.94953L9.87139 2.94865C7.46236 1.61649 4.53764 1.61649 2.12861 2.94865L6 9.94953ZM2.292 12L-5.60366 10.7122C-6.09687 13.736 -4.81977 16.7759 -2.315 18.5403C0.189777 20.3047 3.48223 20.4835 6.16339 19.0009L2.292 12ZM3 7.65931L10.8957 8.94715C11.3046 6.44014 10.4986 3.88792 8.72403 2.07044L3 7.65931ZM0 4.58675L-1.2153 -3.3204C-4.17821 -2.86501 -6.6379 -0.791399 -7.58777 2.05184C-8.53763 4.89507 -7.81826 8.03075 -5.72403 10.1756L0 4.58675ZM4.146 3.94953L5.3613 11.8567C7.99559 11.4518 10.2553 9.76162 11.3878 7.349L4.146 3.94953ZM-1.2418 3.39947L0.612204 7.349L15.0958 0.550058L13.2418 -3.39947L-1.2418 3.39947ZM6.6387 11.8567L10.7847 12.4939L13.2153 -3.3204L9.0693 -3.95763L6.6387 11.8567ZM6.27597 -1.00212L3.27597 2.07044L14.724 13.2482L17.724 10.1756L6.27597 -1.00212ZM1.10434 8.94715L1.81234 13.2878L17.6037 10.7122L16.8957 6.37146L1.10434 8.94715ZM13.5794 4.99912L9.87139 2.94865L2.12861 16.9504L5.83661 19.0009L13.5794 4.99912ZM2.12861 2.94865L-1.57939 4.99912L6.16339 19.0009L9.87139 16.9504L2.12861 2.94865ZM10.1877 13.2878L10.8957 8.94715L-4.89566 6.37146L-5.60366 10.7122L10.1877 13.2878ZM8.72403 2.07044L5.72403 -1.00212L-5.72403 10.1756L-2.72403 13.2482L8.72403 2.07044ZM1.2153 12.4939L5.3613 11.8567L2.9307 -3.95763L-1.2153 -3.3204L1.2153 12.4939ZM11.3878 7.349L13.2418 3.39947L-1.2418 -3.39947L-3.0958 0.550058L11.3878 7.349Z" fill="#FF9916" mask="url(#path-1-inside-1_3006_27756)"/>
</svg>
