<svg width="35" height="33" viewBox="0 0 35 33" fill="none" xmlns="http://www.w3.org/2000/svg">
<path fill-rule="evenodd" clip-rule="evenodd" d="M32.1196 24.9262C33.1161 23.3161 33.5418 20.7197 33.5418 16.4962C33.5418 12.2894 33.1201 9.70817 32.113 8.05479C31.1037 6.33787 29.9066 5.79292 27.531 5.66211C25.9092 5.55847 21.8785 5.5 17.504 5.5C13.1202 5.5 9.08769 5.55845 7.45371 5.66293C5.09137 5.79323 3.89407 6.33939 2.8759 8.06107C1.88343 9.70874 1.4585 12.3026 1.4585 16.5115C1.4585 20.6966 1.88549 23.3035 2.88462 24.9458C3.88956 26.6453 5.06777 27.1849 7.45021 27.3426C9.16252 27.4371 13.4233 27.5 17.504 27.5C21.5757 27.5 25.8343 27.4371 27.531 27.3437C29.9354 27.1849 31.1134 26.6444 32.1196 24.9262ZM27.3474 8.40663C28.8334 8.48851 29.109 8.61444 29.58 9.41825C30.2657 10.538 30.6252 12.7294 30.6252 16.5115C30.6252 20.2651 30.2638 22.4685 29.5832 23.5689C29.1105 24.3752 28.8369 24.5007 27.344 24.5994C25.7382 24.6877 21.5208 24.75 17.5041 24.75C13.4783 24.75 9.25875 24.6877 7.6375 24.5983C6.16309 24.5006 5.88549 24.3735 5.42332 23.592C4.73809 22.4655 4.37516 20.2497 4.37516 16.4962C4.37516 12.7449 4.73616 10.5413 5.41772 9.4097C5.88708 8.61612 6.16664 8.4886 7.63759 8.40743C9.19507 8.3079 13.1897 8.25 17.5041 8.25C21.8092 8.25 25.8019 8.30792 27.3474 8.40663ZM14.5835 12.375L21.8752 16.5L14.5835 20.625V12.375Z" fill="#0F264C"/>
</svg>
